<svg width="61" height="56" viewBox="0 0 61 56" fill="none" xmlns="http://www.w3.org/2000/svg">
<path d="M2.09891 56.0001C2.7851 56.0001 3.34138 55.4438 3.34138 54.7576C3.34138 54.0714 2.7851 53.5151 2.09891 53.5151C1.41272 53.5151 0.856445 54.0714 0.856445 54.7576C0.856445 55.4438 1.41272 56.0001 2.09891 56.0001Z" fill="#EA3223"/>
<path d="M2.09891 45.2622C2.7851 45.2622 3.34138 44.7059 3.34138 44.0197C3.34138 43.3335 2.7851 42.7772 2.09891 42.7772C1.41272 42.7772 0.856445 43.3335 0.856445 44.0197C0.856445 44.7059 1.41272 45.2622 2.09891 45.2622Z" fill="#EA3223"/>
<path d="M2.09891 34.5229C2.7851 34.5229 3.34138 33.9666 3.34138 33.2804C3.34138 32.5942 2.7851 32.038 2.09891 32.038C1.41272 32.038 0.856445 32.5942 0.856445 33.2804C0.856445 33.9666 1.41272 34.5229 2.09891 34.5229Z" fill="#EA3223"/>
<path d="M2.09891 23.8732C2.7851 23.8732 3.34138 23.317 3.34138 22.6308C3.34138 21.9446 2.7851 21.3883 2.09891 21.3883C1.41272 21.3883 0.856445 21.9446 0.856445 22.6308C0.856445 23.317 1.41272 23.8732 2.09891 23.8732Z" fill="#EA3223"/>
<path d="M2.09891 13.1353C2.7851 13.1353 3.34138 12.579 3.34138 11.8929C3.34138 11.2067 2.7851 10.6504 2.09891 10.6504C1.41272 10.6504 0.856445 11.2067 0.856445 11.8929C0.856445 12.579 1.41272 13.1353 2.09891 13.1353Z" fill="#EA3223"/>
<path d="M2.09989 2.48578C2.78608 2.48578 3.34235 1.92951 3.34235 1.24332C3.34235 0.557125 2.78608 0.000854492 2.09989 0.000854492C1.41369 0.000854492 0.857422 0.557125 0.857422 1.24332C0.857422 1.92951 1.41369 2.48578 2.09989 2.48578Z" fill="#EA3223"/>
<path d="M59.6087 55.9992C60.2949 55.9992 60.8511 55.4429 60.8511 54.7567C60.8511 54.0706 60.2949 53.5143 59.6087 53.5143C58.9225 53.5143 58.3662 54.0706 58.3662 54.7567C58.3662 55.4429 58.9225 55.9992 59.6087 55.9992Z" fill="#EA3223"/>
<path d="M59.6087 45.2613C60.2949 45.2613 60.8511 44.705 60.8511 44.0188C60.8511 43.3326 60.2949 42.7764 59.6087 42.7764C58.9225 42.7764 58.3662 43.3326 58.3662 44.0188C58.3662 44.705 58.9225 45.2613 59.6087 45.2613Z" fill="#EA3223"/>
<path d="M59.6087 34.522C60.2949 34.522 60.8511 33.9658 60.8511 33.2796C60.8511 32.5934 60.2949 32.0371 59.6087 32.0371C58.9225 32.0371 58.3662 32.5934 58.3662 33.2796C58.3662 33.9658 58.9225 34.522 59.6087 34.522Z" fill="#EA3223"/>
<path d="M59.6087 23.8724C60.2949 23.8724 60.8511 23.3161 60.8511 22.6299C60.8511 21.9437 60.2949 21.3875 59.6087 21.3875C58.9225 21.3875 58.3662 21.9437 58.3662 22.6299C58.3662 23.3161 58.9225 23.8724 59.6087 23.8724Z" fill="#EA3223"/>
<path d="M59.6087 13.1345C60.2949 13.1345 60.8511 12.5782 60.8511 11.892C60.8511 11.2058 60.2949 10.6495 59.6087 10.6495C58.9225 10.6495 58.3662 11.2058 58.3662 11.892C58.3662 12.5782 58.9225 13.1345 59.6087 13.1345Z" fill="#EA3223"/>
<path d="M59.6087 2.48493C60.2949 2.48493 60.8511 1.92866 60.8511 1.24246C60.8511 0.55627 60.2949 0 59.6087 0C58.9225 0 58.3662 0.55627 58.3662 1.24246C58.3662 1.92866 58.9225 2.48493 59.6087 2.48493Z" fill="#EA3223"/>
<path d="M48.1604 55.9992C48.8466 55.9992 49.4029 55.4429 49.4029 54.7567C49.4029 54.0706 48.8466 53.5143 48.1604 53.5143C47.4742 53.5143 46.918 54.0706 46.918 54.7567C46.918 55.4429 47.4742 55.9992 48.1604 55.9992Z" fill="#EA3223"/>
<path d="M48.1604 45.2613C48.8466 45.2613 49.4029 44.705 49.4029 44.0188C49.4029 43.3326 48.8466 42.7764 48.1604 42.7764C47.4742 42.7764 46.918 43.3326 46.918 44.0188C46.918 44.705 47.4742 45.2613 48.1604 45.2613Z" fill="#EA3223"/>
<path d="M48.1604 34.522C48.8466 34.522 49.4029 33.9658 49.4029 33.2796C49.4029 32.5934 48.8466 32.0371 48.1604 32.0371C47.4742 32.0371 46.918 32.5934 46.918 33.2796C46.918 33.9658 47.4742 34.522 48.1604 34.522Z" fill="#EA3223"/>
<path d="M48.1604 23.8724C48.8466 23.8724 49.4029 23.3161 49.4029 22.6299C49.4029 21.9437 48.8466 21.3875 48.1604 21.3875C47.4742 21.3875 46.918 21.9437 46.918 22.6299C46.918 23.3161 47.4742 23.8724 48.1604 23.8724Z" fill="#EA3223"/>
<path d="M48.1604 13.1345C48.8466 13.1345 49.4029 12.5782 49.4029 11.892C49.4029 11.2058 48.8466 10.6495 48.1604 10.6495C47.4742 10.6495 46.918 11.2058 46.918 11.892C46.918 12.5782 47.4742 13.1345 48.1604 13.1345Z" fill="#EA3223"/>
<path d="M48.1604 2.48493C48.8466 2.48493 49.4029 1.92866 49.4029 1.24246C49.4029 0.55627 48.8466 0 48.1604 0C47.4742 0 46.918 0.55627 46.918 1.24246C46.918 1.92866 47.4742 2.48493 48.1604 2.48493Z" fill="#EA3223"/>
<path d="M36.6243 55.9992C37.3105 55.9992 37.8668 55.4429 37.8668 54.7567C37.8668 54.0706 37.3105 53.5143 36.6243 53.5143C35.9381 53.5143 35.3818 54.0706 35.3818 54.7567C35.3818 55.4429 35.9381 55.9992 36.6243 55.9992Z" fill="#EA3223"/>
<path d="M36.6243 45.2613C37.3105 45.2613 37.8668 44.705 37.8668 44.0188C37.8668 43.3326 37.3105 42.7764 36.6243 42.7764C35.9381 42.7764 35.3818 43.3326 35.3818 44.0188C35.3818 44.705 35.9381 45.2613 36.6243 45.2613Z" fill="#EA3223"/>
<path d="M36.6243 34.522C37.3105 34.522 37.8668 33.9658 37.8668 33.2796C37.8668 32.5934 37.3105 32.0371 36.6243 32.0371C35.9381 32.0371 35.3818 32.5934 35.3818 33.2796C35.3818 33.9658 35.9381 34.522 36.6243 34.522Z" fill="#EA3223"/>
<path d="M36.6243 23.8724C37.3105 23.8724 37.8668 23.3161 37.8668 22.6299C37.8668 21.9437 37.3105 21.3875 36.6243 21.3875C35.9381 21.3875 35.3818 21.9437 35.3818 22.6299C35.3818 23.3161 35.9381 23.8724 36.6243 23.8724Z" fill="#EA3223"/>
<path d="M36.6243 13.1345C37.3105 13.1345 37.8668 12.5782 37.8668 11.892C37.8668 11.2058 37.3105 10.6495 36.6243 10.6495C35.9381 10.6495 35.3818 11.2058 35.3818 11.892C35.3818 12.5782 35.9381 13.1345 36.6243 13.1345Z" fill="#EA3223"/>
<path d="M36.6233 2.48493C37.3095 2.48493 37.8658 1.92866 37.8658 1.24246C37.8658 0.55627 37.3095 0 36.6233 0C35.9371 0 35.3809 0.55627 35.3809 1.24246C35.3809 1.92866 35.9371 2.48493 36.6233 2.48493Z" fill="#EA3223"/>
<path d="M25.0872 55.9992C25.7734 55.9992 26.3297 55.4429 26.3297 54.7567C26.3297 54.0706 25.7734 53.5143 25.0872 53.5143C24.401 53.5143 23.8447 54.0706 23.8447 54.7567C23.8447 55.4429 24.401 55.9992 25.0872 55.9992Z" fill="#EA3223"/>
<path d="M25.0872 45.2613C25.7734 45.2613 26.3297 44.705 26.3297 44.0188C26.3297 43.3326 25.7734 42.7764 25.0872 42.7764C24.401 42.7764 23.8447 43.3326 23.8447 44.0188C23.8447 44.705 24.401 45.2613 25.0872 45.2613Z" fill="#EA3223"/>
<path d="M25.0872 34.522C25.7734 34.522 26.3297 33.9658 26.3297 33.2796C26.3297 32.5934 25.7734 32.0371 25.0872 32.0371C24.401 32.0371 23.8447 32.5934 23.8447 33.2796C23.8447 33.9658 24.401 34.522 25.0872 34.522Z" fill="#EA3223"/>
<path d="M25.0872 23.8724C25.7734 23.8724 26.3297 23.3161 26.3297 22.6299C26.3297 21.9437 25.7734 21.3875 25.0872 21.3875C24.401 21.3875 23.8447 21.9437 23.8447 22.6299C23.8447 23.3161 24.401 23.8724 25.0872 23.8724Z" fill="#EA3223"/>
<path d="M25.0872 13.1345C25.7734 13.1345 26.3297 12.5782 26.3297 11.892C26.3297 11.2058 25.7734 10.6495 25.0872 10.6495C24.401 10.6495 23.8447 11.2058 23.8447 11.892C23.8447 12.5782 24.401 13.1345 25.0872 13.1345Z" fill="#EA3223"/>
<path d="M25.0862 2.48493C25.7724 2.48493 26.3287 1.92866 26.3287 1.24246C26.3287 0.55627 25.7724 0 25.0862 0C24.4 0 23.8438 0.55627 23.8438 1.24246C23.8438 1.92866 24.4 2.48493 25.0862 2.48493Z" fill="#EA3223"/>
<path d="M13.5501 55.9992C14.2363 55.9992 14.7925 55.4429 14.7925 54.7567C14.7925 54.0706 14.2363 53.5143 13.5501 53.5143C12.8639 53.5143 12.3076 54.0706 12.3076 54.7567C12.3076 55.4429 12.8639 55.9992 13.5501 55.9992Z" fill="#EA3223"/>
<path d="M13.5501 45.2613C14.2363 45.2613 14.7925 44.705 14.7925 44.0188C14.7925 43.3326 14.2363 42.7764 13.5501 42.7764C12.8639 42.7764 12.3076 43.3326 12.3076 44.0188C12.3076 44.705 12.8639 45.2613 13.5501 45.2613Z" fill="#EA3223"/>
<path d="M13.5501 34.522C14.2363 34.522 14.7925 33.9658 14.7925 33.2796C14.7925 32.5934 14.2363 32.0371 13.5501 32.0371C12.8639 32.0371 12.3076 32.5934 12.3076 33.2796C12.3076 33.9658 12.8639 34.522 13.5501 34.522Z" fill="#EA3223"/>
<path d="M13.5501 23.8724C14.2363 23.8724 14.7925 23.3161 14.7925 22.6299C14.7925 21.9437 14.2363 21.3875 13.5501 21.3875C12.8639 21.3875 12.3076 21.9437 12.3076 22.6299C12.3076 23.3161 12.8639 23.8724 13.5501 23.8724Z" fill="#EA3223"/>
<path d="M13.5501 13.1345C14.2363 13.1345 14.7925 12.5782 14.7925 11.892C14.7925 11.2058 14.2363 10.6495 13.5501 10.6495C12.8639 10.6495 12.3076 11.2058 12.3076 11.892C12.3076 12.5782 12.8639 13.1345 13.5501 13.1345Z" fill="#EA3223"/>
<path d="M13.5491 2.48493C14.2353 2.48493 14.7916 1.92866 14.7916 1.24246C14.7916 0.55627 14.2353 0 13.5491 0C12.8629 0 12.3066 0.55627 12.3066 1.24246C12.3066 1.92866 12.8629 2.48493 13.5491 2.48493Z" fill="#EA3223"/>
</svg>
