<svg width="44" height="30" viewBox="0 0 44 30" fill="none" xmlns="http://www.w3.org/2000/svg">
<path fill-rule="evenodd" clip-rule="evenodd" d="M10.506 28.7516C7.86923 29.9002 4.98068 30.2576 2.18354 29.8174C0.395723 29.5361 -0.435764 27.5943 0.226389 25.91C0.888543 24.2257 2.81925 23.4694 4.6289 23.4451C5.74072 23.4301 6.84936 23.1957 7.88853 22.743C9.94214 21.8484 11.5563 20.1747 12.3758 18.09C13.1954 16.0053 13.1532 13.6804 12.2586 11.6268C11.8059 10.5876 11.1537 9.66097 10.3497 8.89287C9.04112 7.64269 8.14234 5.77406 8.80449 4.08973C9.46665 2.40539 11.3979 1.54969 12.8986 2.56119C14.1094 3.37722 15.1935 4.36508 16.1172 5.49209C16.3489 5.7749 16.7889 5.77491 17.0207 5.4921C19.1554 2.88722 22.1047 1.07654 25.3936 0.351587C28.6825 -0.373365 32.1197 0.0295944 35.1517 1.49559C38.1838 2.96158 40.6342 5.40531 42.1086 8.43329C42.9639 10.1899 43.4618 12.0837 43.5894 14.0069C43.7432 16.325 41.4393 17.7879 39.1692 17.2941C36.8991 16.8003 35.5817 14.4045 34.625 12.2874C34.5991 12.23 34.5723 12.173 34.5447 12.1162C33.8972 10.7865 32.8211 9.71341 31.4897 9.06964C30.1582 8.42587 28.6488 8.24891 27.2045 8.56727C25.7602 8.88562 24.4651 9.68075 23.5277 10.8246C22.5902 11.9685 22.065 13.3946 22.0366 14.8733C22.0082 16.352 22.4783 17.7972 23.3711 18.9763C24.2639 20.1553 25.5275 20.9996 26.9585 21.3732C27.0195 21.3891 27.0807 21.4042 27.1421 21.4183C29.4058 21.9405 32.0138 22.7616 32.9439 24.8904C33.8741 27.0192 32.8923 29.5656 30.5892 29.8702C28.6784 30.1229 26.7236 30.0068 24.8333 29.5133C21.5746 28.6625 18.6971 26.7399 16.664 24.0549C16.6164 23.992 16.5215 23.992 16.4738 24.0549C14.9338 26.0886 12.8861 27.7148 10.506 28.7516Z" fill="#18191F"/>
</svg>
