<svg width="16" height="16" viewBox="0 0 16 16" fill="none" xmlns="http://www.w3.org/2000/svg">
<path fill-rule="evenodd" clip-rule="evenodd" d="M0.666992 8.00008C0.666992 3.94999 3.95024 0.666748 8.00033 0.666748C12.0504 0.666748 15.3337 3.94999 15.3337 8.00008C15.3337 12.0502 12.0504 15.3334 8.00033 15.3334C3.95024 15.3334 0.666992 12.0502 0.666992 8.00008Z" fill="#08AD36"/>
<path fill-rule="evenodd" clip-rule="evenodd" d="M11.5408 5.36206C11.8011 5.62241 11.8011 6.04452 11.5408 6.30487L7.40272 10.6382C7.14237 10.8986 6.72026 10.8986 6.45991 10.6382L4.45991 8.6382C4.19956 8.37785 4.19956 7.95574 4.45991 7.69539C4.72026 7.43505 5.14237 7.43505 5.40272 7.69539L6.93132 9.22399L10.598 5.36206C10.8583 5.10171 11.2804 5.10171 11.5408 5.36206Z" fill="white"/>
</svg>
